{"accessors" : [{"bufferView" : 0, "byteOffset" : 0, "componentType" : 5123, "count" : 9792, "type" : "SCALAR", "max" : [8076], "min" : [0]}, {"bufferView" : 1, "byteOffset" : 0, "componentType" : 5126, "count" : 8077, "type" : "VEC3", "max" : [0.6885730028152466, 1.6733239889144897, 0.17410500347614288], "min" : [-1.0162509679794312, 0.10819999873638153, -0.4278390109539032], "name" : "POSITION"}, {"bufferView" : 1, "byteOffset" : 12, "componentType" : 5126, "count" : 8077, "type" : "VEC2", "max" : [2.3797221183776855, 2.079277992248535], "min" : [-1.6512099504470825, -2.1162309646606445], "name" : "TEXCOORD_0"}, {"bufferView" : 1, "byteOffset" : 20, "componentType" : 5126, "count" : 8077, "type" : "VEC3", "max" : [1.0000044107437134, 1.0000044107437134, 1.0000044107437134], "min" : [-1.0000044107437134, -1.0000044107437134, -1.0000044107437134], "name" : "NORMAL"}, {"bufferView" : 0, "byteOffset" : 19584, "componentType" : 5123, "count" : 972, "type" : "SCALAR", "max" : [797], "min" : [0]}, {"bufferView" : 2, "byteOffset" : 0, "componentType" : 5126, "count" : 798, "type" : "VEC3", "max" : [0.11281300336122513, 1.2128230333328247, -0.2882930040359497], "min" : [-0.4670099914073944, 0.6353579759597778, -0.587440013885498], "name" : "POSITION"}, {"bufferView" : 2, "byteOffset" : 12, "componentType" : 5126, "count" : 798, "type" : "VEC2", "max" : [1.5951980352401733, 0.7790989875793457], "min" : [-0.5951979756355286, -1.6222879886627197], "name" : "TEXCOORD_0"}, {"bufferView" : 2, "byteOffset" : 20, "componentType" : 5126, "count" : 798, "type" : "VEC3", "max" : [0.9993590116500854, 0.9999740719795227, 0.9966828227043152], "min" : [-0.9993590116500854, -0.9999740719795227, -0.9966828227043152], "name" : "NORMAL"}], "asset" : {"generator" : "Aspose.3D 22.3", "version" : "2.0"}, "buffers" : [{"uri" : "data:application/octet-stream;base64,", "byteLength" : 365988}], "bufferViews" : [{"buffer" : 0, "byteOffset" : 0, "byteLength" : 21528, "target" : 34963}, {"buffer" : 0, "byteOffset" : 21532, "byteLength" : 313344, "byteStride" : 32, "target" : 34962}, {"buffer" : 0, "byteOffset" : 334880, "byteLength" : 31104, "byteStride" : 32, "target" : 34962}], "meshes" : [{"primitives" : [{"attributes" : {"POSITION" : 1, "TEXCOORD_0" : 2, "NORMAL" : 3}, "indices" : 0, "mode" : 4}], "name" : ""}, {"primitives" : [{"attributes" : {"POSITION" : 5, "TEXCOORD_0" : 6, "NORMAL" : 7}, "indices" : 4, "mode" : 4}], "name" : ""}], "nodes" : [{"mesh" : 0, "name" : "Cube.004_Cube.005_Cube.004_Cube.005mesh"}, {"mesh" : 1, "name" : "Cube_Cube.001"}], "scene" : 0, "scenes" : [{"nodes" : [0, 1]}]}